# xmcd
#
# Track frame offsets:
#	150
#	21278
#	37212
#	53148
#	69908
#	84529
#	101023
#	118063
#	132263
#	149192
#	166703
#	184136
# Disc length: 2675 seconds
# Revision: 1
# Processed by: cddbd v1.5.2PL0 Copyright (c) Steve Scherf et al.
#
# Submitted via: libkcddb 0.31
#
DISCID=ad0a710c
DTITLE=ฝน  ธนสุนทร - ดาวประดับใจ ชุดพิเศษ 3
DYEAR=2005
DGENRE=Country
TTITLE0=ดาวประดับใจ
TTITLE1=จงรัก
TTITLE2=เชียงรายรำลึก
TTITLE3=เสน่หา
TTITLE4=ถ้าฉันจะรัก
TTITLE5=ลืมเสียเถิด
TTITLE6=ร้อยบุปผา
TTITLE7=สักวันหนึ่ง
TTITLE8=เธอ
TTITLE9=ปรัศนีหัวใจ
TTITLE10=ศัตรูหัวใจ
TTITLE11=บำนาญรัก
EXTD=
EXTT0=
EXTT1=
EXTT2=
EXTT3=
EXTT4=
EXTT5=
EXTT6=
EXTT7=
EXTT8=
EXTT9=
EXTT10=
EXTT11=
PLAYORDER=
